<?xml version="1.0" standalone="no"?>
<!DOCTYPE svg PUBLIC "-//W3C//DTD SVG 20010904//EN"
 "http://www.w3.org/TR/2001/REC-SVG-20010904/DTD/svg10.dtd">
<svg version="1.0" xmlns="http://www.w3.org/2000/svg"
 width="512.000000pt" height="512.000000pt" viewBox="0 0 512.000000 512.000000"
 preserveAspectRatio="xMidYMid meet">
<metadata>
Created by potrace 1.14, written by Peter Selinger 2001-2017
</metadata>
<g transform="translate(0.000000,512.000000) scale(0.100000,-0.100000)"
fill="#000000" stroke="none">
<path d="M204 4438 c1 -40 16 -60 241 -331 132 -159 247 -301 255 -315 20 -38
24 -2295 3 -2357 -11 -34 -103 -156 -212 -280 -14 -17 -55 -66 -91 -110 -35
-44 -108 -133 -162 -197 -88 -107 -97 -121 -96 -158 l0 -40 718 0 718 0 4 36
c3 26 -2 44 -16 63 -34 43 -445 542 -483 586 -19 22 -44 58 -56 80 l-21 40 -1
972 c0 534 3 969 7 967 5 -3 8 -10 8 -15 0 -5 16 -45 36 -87 42 -89 49 -103
222 -482 71 -157 145 -319 165 -360 37 -79 84 -182 122 -265 13 -27 43 -95 68
-150 25 -55 63 -138 85 -185 21 -47 49 -107 62 -135 12 -27 33 -72 46 -100 35
-74 210 -457 332 -727 l107 -238 76 0 75 0 28 73 c16 39 100 254 188 477 88
223 189 479 224 570 36 91 68 174 73 185 5 11 13 31 19 45 6 14 38 97 72 185
34 88 68 174 75 190 7 17 61 154 121 305 206 525 283 715 284 700 1 -15 2
-2158 1 -2213 -1 -29 -5 -33 -297 -318 -121 -118 -129 -128 -131 -166 l-2 -40
950 0 949 -1 0 41 c0 40 -5 45 -208 243 l-207 203 -3 1428 -2 1428 113 110
c63 60 159 154 215 208 95 92 102 101 102 138 l0 39 -670 -2 -670 -3 -270
-675 c-149 -371 -277 -689 -285 -707 -8 -17 -15 -34 -15 -38 0 -4 -7 -21 -14
-38 -8 -18 -78 -192 -156 -387 -78 -195 -147 -368 -154 -385 -8 -16 -21 -52
-31 -78 -10 -26 -21 -49 -24 -51 -3 -2 -69 134 -145 302 -77 169 -159 348
-182 397 -23 50 -61 133 -84 185 -24 52 -58 129 -78 170 -19 41 -45 98 -57
125 -140 309 -183 402 -216 473 -22 46 -39 86 -39 87 0 2 -18 41 -39 87 -21
46 -62 135 -91 198 -28 63 -68 149 -87 190 -19 41 -42 92 -50 113 l-15 37
-703 0 -703 0 2 -42z"/>
</g>
</svg>
